<svg xmlns="http://www.w3.org/2000/svg" viewBox="0 0 64 64" role="img" aria-label="Drizzle ORM">
  <defs>
    <linearGradient id="driz" x1="8" y1="56" x2="56" y2="8" gradientUnits="userSpaceOnUse">
      <stop stop-color="#f97316"/>
      <stop offset="1" stop-color="#ea580c"/>
    </linearGradient>
  </defs>
  <path fill="url(#driz)" d="M34 6c-8 10-18 18-18 30 0 8 6 14 14 16l4-8c-4-1-7-4.5-7-8.5 0-6 6-11.5 14-20.5L34 6z"/>
  <path fill="#fdba74" d="M40 18c6 8 10 16 10 22 0 6-4 10.5-10 12l3 10c10-3 16-11 16-20 0-10-8-19-19-24z"/>
  <path fill="#c2410c" d="M28 44c2 4 6 7 11 8l-2-6c-3-1-5.5-3.5-6.5-6.5L28 44z"/>
</svg>
