<svg xmlns="http://www.w3.org/2000/svg" viewBox="0 0 64 64" role="img" aria-label="GitLab">
  <path fill="#E24329" d="m32 58 11.4-34.8H20.6L32 58z"/>
  <path fill="#FC6D26" d="M32 58 20.6 23.2H8.1L32 58z"/>
  <path fill="#FCA326" d="m8.1 23.2-.9 2.7c-.8 2.5.1 5.2 2.3 6.7L32 58 8.1 23.2z"/>
  <path fill="#E24329" d="M8.1 23.2h12.5L18.4 9c-.9-2.8-4.9-2.8-5.8 0L8.1 23.2z"/>
  <path fill="#FC6D26" d="m32 58 11.4-34.8h12.5L32 58z"/>
  <path fill="#FCA326" d="m55.9 23.2.9 2.7c.8 2.5-.1 5.2-2.3 6.7L32 58l23.9-34.8z"/>
  <path fill="#E24329" d="M55.9 23.2H43.4l2.2-14.2c.9-2.8 4.9-2.8 5.8 0l4.5 14.2z"/>
</svg>
